<svg width="15" height="15" viewBox="0 0 15 15" fill="none" xmlns="http://www.w3.org/2000/svg">
<path d="M14.7954 13.9773L11.6591 10.8409C14.0454 7.97728 13.6363 3.88637 10.8409 1.50001C8.04543 -0.886357 3.88634 -0.477266 1.49998 2.38637C-0.886386 5.25001 -0.477295 9.34092 2.31816 11.7273C4.7727 13.7727 8.38634 13.7727 10.8409 11.7273L13.9773 14.8636C14.1818 15.0682 14.5909 15.0682 14.7954 14.8636C15.0682 14.5909 15 14.25 14.7954 13.9773ZM1.15907 6.68182C1.15907 3.68182 3.61361 1.22728 6.61361 1.22728C9.61361 1.22728 12.0682 3.68182 12.0682 6.68182C12.0682 9.68182 9.61361 12.1364 6.61361 12.1364C3.61361 12.0682 1.15907 9.61364 1.15907 6.68182Z" fill="black"/>
</svg>
