<svg width="205" height="29" viewBox="0 0 205 29" fill="none" xmlns="http://www.w3.org/2000/svg">
<path d="M14.0155 12.8868C13.523 12.0865 12.8664 11.4503 12.0661 11.0194C12.7022 10.568 13.2152 9.97286 13.6051 9.2136C14.0771 8.33122 14.3233 7.4078 14.3233 6.42281C14.3233 4.86325 13.7487 3.54994 12.6201 2.50339C11.4915 1.47737 10.0345 0.964355 8.33133 0.964355H0V21.9158H8.43393C10.2397 21.9158 11.7788 21.3412 13.01 20.2331C14.2412 19.1045 14.8774 17.6886 14.8774 16.0469C14.8774 14.8773 14.5901 13.8102 14.0155 12.8868ZM8.41341 18.8788H3.03704V12.5995H8.41341C9.37788 12.5995 10.1577 12.8868 10.7938 13.5024C11.4299 14.0975 11.7377 14.8362 11.7377 15.7391C11.7377 16.642 11.4299 17.3808 10.7938 17.9759C10.1577 18.5915 9.37788 18.8788 8.41341 18.8788ZM3.03704 3.96035H8.26977C9.11111 3.96035 9.80881 4.22712 10.3834 4.78117C10.958 5.33523 11.2452 5.99188 11.2452 6.79218C11.2452 7.59248 10.9785 8.24914 10.4039 8.80319C9.82933 9.35725 9.15215 9.62401 8.29029 9.62401H3.03704V3.96035Z" fill="#E85F5C"/>
<path d="M32.0531 9.54194C31.3759 8.24914 30.4114 7.2026 29.1597 6.44334C27.9079 5.68408 26.4715 5.29419 24.8709 5.29419C23.3318 5.29419 21.9159 5.66356 20.6436 6.4023C19.3714 7.14104 18.3659 8.16706 17.6476 9.45986C16.9294 10.7526 16.5601 12.2096 16.5601 13.7897C16.5601 15.3698 16.9294 16.8267 17.6476 18.1195C18.3659 19.4123 19.3714 20.4383 20.6436 21.1771C21.9159 21.9158 23.3318 22.2852 24.8709 22.2852C26.6356 22.2852 28.1952 21.8132 29.5495 20.8898C30.9039 19.9664 31.9299 18.653 32.6276 16.9909L32.7713 16.6626H29.6316L29.5701 16.7857C29.0981 17.6065 28.462 18.2426 27.6411 18.6941C26.8408 19.1455 25.8969 19.3918 24.8709 19.3918C23.455 19.3918 22.2442 18.9609 21.2798 18.1195C20.3769 17.3397 19.8228 16.2932 19.5971 15.0209H32.997L33.0175 14.7952C33.038 14.4874 33.0586 14.1796 33.0586 13.8923C33.038 12.2917 32.7097 10.8347 32.0531 9.54194ZM24.8503 8.14654C26.2047 8.14654 27.3539 8.53643 28.2773 9.31621C29.1391 10.0344 29.7342 10.9989 30.001 12.2096H19.6587C19.9254 11.0194 20.5205 10.055 21.3824 9.33673C22.3263 8.53643 23.496 8.14654 24.8503 8.14654Z" fill="#E85F5C"/>
<path d="M56.6366 19.1252V21.916H54.3589C52.5941 21.916 51.1782 21.4029 50.1727 20.3564C49.1466 19.3304 48.6336 17.9145 48.6336 16.1292V8.37241H45.8428V7.59263L50.8704 2.29834H51.6091V5.64318H56.5545V8.37241H51.6091V16.0881C51.6091 17.0936 51.8759 17.8529 52.3889 18.3659C52.9019 18.8789 53.6817 19.1457 54.6872 19.1457H56.6366V19.1252Z" fill="#E85F5C"/>
<path d="M42.3749 19.1252H44.3243V21.916H42.0465C40.2818 21.916 38.8659 21.4029 37.8603 20.3564C36.8343 19.3304 36.3213 17.9145 36.3213 16.1292V8.37241H33.5305V7.59263L38.558 2.29834H39.2968V5.64318H44.2422V8.37241H39.2968V16.0881C39.2968 17.0936 39.5636 17.8529 40.0766 18.3659C40.5896 18.8584 41.3694 19.1252 42.3749 19.1252Z" fill="#E85F5C"/>
<path d="M72.8273 9.54194C72.1502 8.24914 71.1857 7.2026 69.9339 6.44334C68.6822 5.68408 67.2458 5.29419 65.6452 5.29419C64.1061 5.29419 62.6902 5.66356 61.4179 6.4023C60.1457 7.14104 59.1402 8.16706 58.4219 9.45986C57.7037 10.7526 57.3344 12.2096 57.3344 13.7897C57.3344 15.3698 57.7037 16.8267 58.4219 18.1195C59.1402 19.4123 60.1457 20.4383 61.4179 21.1771C62.6902 21.9158 64.1061 22.2852 65.6452 22.2852C67.4099 22.2852 68.9695 21.8132 70.3238 20.8898C71.6782 19.9664 72.7042 18.653 73.4019 16.9909L73.5456 16.6626H70.4059L70.3444 16.7857C69.8724 17.6065 69.2363 18.2426 68.4154 18.6941C67.6151 19.1455 66.6712 19.3918 65.6452 19.3918C64.2292 19.3918 63.0185 18.9609 62.0541 18.1195C61.1512 17.3397 60.5971 16.2932 60.3714 15.0209H73.7713L73.7918 14.7952C73.8123 14.4874 73.8328 14.1796 73.8328 13.8923C73.8328 12.2917 73.5045 10.8347 72.8273 9.54194ZM65.6452 8.14654C66.979 8.14654 68.1487 8.53643 69.0721 9.31621C69.934 10.0344 70.529 10.9989 70.7958 12.2096H60.433C60.6997 11.0194 61.2948 10.055 62.1567 9.33673C63.1006 8.53643 64.2703 8.14654 65.6452 8.14654Z" fill="#E85F5C"/>
<path d="M85.0165 5.56104V8.41339H83.1491C81.7948 8.41339 80.7482 8.8238 80.0095 9.64462C79.2708 10.4654 78.8809 11.6351 78.8809 13.1126V21.9364H75.9054V5.64312H78.1216L78.4705 7.69517C79.6401 6.27925 81.2818 5.56104 83.3749 5.56104H85.0165Z" fill="#E85F5C"/>
<path d="M101.864 0.964355V3.85775H95.6461V21.9158H92.5886V3.85775H86.3503V0.964355H101.864Z" fill="#E85F5C"/>
<path d="M141.386 9.54194C140.709 8.24914 139.745 7.2026 138.493 6.44334C137.241 5.68408 135.805 5.29419 134.204 5.29419C132.665 5.29419 131.249 5.66356 129.977 6.4023C128.705 7.14104 127.699 8.16706 126.981 9.45986C126.263 10.7526 125.893 12.2096 125.893 13.7897C125.893 15.3698 126.263 16.8267 126.981 18.1195C127.699 19.4123 128.705 20.4383 129.977 21.1771C131.249 21.9158 132.665 22.2852 134.204 22.2852C135.969 22.2852 137.529 21.8132 138.883 20.8898C140.237 19.9664 141.263 18.653 141.961 16.9909L142.105 16.6626H138.965L138.903 16.7857C138.431 17.6065 137.795 18.2426 136.974 18.6941C136.154 19.1455 135.23 19.3918 134.204 19.3918C132.788 19.3918 131.578 18.9609 130.613 18.1195C129.71 17.3397 129.156 16.2932 128.93 15.0209H142.33L142.351 14.7952C142.371 14.4874 142.392 14.1796 142.392 13.8923C142.392 12.2917 142.064 10.8347 141.386 9.54194ZM134.204 8.14654C135.559 8.14654 136.708 8.53643 137.631 9.31621C138.493 10.0344 139.088 10.9989 139.355 12.2096H128.992C129.259 11.0194 129.854 10.055 130.716 9.33673C131.68 8.53643 132.85 8.14654 134.204 8.14654Z" fill="#E85F5C"/>
<path d="M153.432 19.1252V21.916H151.154C149.389 21.916 147.973 21.4029 146.968 20.3564C145.942 19.3304 145.429 17.9145 145.429 16.1292V8.37241H142.638V7.59263L147.666 2.29834H148.404V5.64318H153.35V8.37241H148.404V16.0881C148.404 17.0731 148.671 17.8529 149.184 18.3659C149.697 18.8789 150.477 19.1457 151.482 19.1457H153.432V19.1252Z" fill="#E85F5C"/>
<path d="M170.361 12.2302V21.9159H167.386V12.8048C167.386 11.2658 167.037 10.0756 166.339 9.27528C165.642 8.45445 164.677 8.06456 163.364 8.06456C162.071 8.06456 161.025 8.53654 160.142 9.501C159.28 10.4655 158.829 11.6557 158.829 13.0716V21.9159H155.853V0H158.829V7.38739C159.383 6.81281 160.06 6.34084 160.799 5.97147C161.763 5.52002 162.83 5.29429 163.979 5.29429C165.908 5.29429 167.468 5.93043 168.617 7.18218C169.787 8.43393 170.361 10.1166 170.361 12.2302Z" fill="#E85F5C"/>
<path d="M187.681 9.54194C187.003 8.24914 186.039 7.2026 184.787 6.44334C183.536 5.68408 182.099 5.29419 180.498 5.29419C178.959 5.29419 177.544 5.66356 176.271 6.4023C174.999 7.14104 173.993 8.16706 173.275 9.45986C172.557 10.7526 172.188 12.2096 172.188 13.7897C172.188 15.3698 172.557 16.8267 173.275 18.1195C173.993 19.4123 174.999 20.4383 176.271 21.1771C177.544 21.9158 178.959 22.2852 180.498 22.2852C182.263 22.2852 183.823 21.8132 185.177 20.8898C186.532 19.9664 187.558 18.653 188.255 16.9909L188.399 16.6626H185.259L185.198 16.7857C184.726 17.6065 184.09 18.2426 183.269 18.6941C182.468 19.1455 181.525 19.3918 180.498 19.3918C179.083 19.3918 177.872 18.9609 176.907 18.1195C176.004 17.3397 175.45 16.2932 175.225 15.0209H188.625L188.645 14.7952C188.666 14.4874 188.686 14.1796 188.686 13.8923C188.686 12.2917 188.358 10.8347 187.681 9.54194ZM180.498 8.14654C181.853 8.14654 183.002 8.53643 183.925 9.31621C184.787 10.0344 185.382 10.9989 185.649 12.2096H175.286C175.553 11.0194 176.148 10.055 177.01 9.33673C177.974 8.53643 179.144 8.14654 180.498 8.14654Z" fill="#E85F5C"/>
<path d="M199.993 5.56104V8.41339H198.126C196.771 8.41339 195.725 8.8238 194.986 9.64462C194.247 10.4654 193.857 11.6351 193.857 13.1126V21.9364H190.882V5.64312H193.098L193.447 7.69517C194.617 6.27925 196.258 5.56104 198.351 5.56104H199.993Z" fill="#E85F5C"/>
<path d="M119.06 21.6082C119.286 21.403 119.491 21.1978 119.717 20.9926C120.845 19.946 121.994 18.8585 122.795 17.5041C123.123 16.9706 123.369 16.396 123.554 15.8214C124.211 13.7078 123.944 11.389 122.836 9.48058C122.466 8.84445 122.015 8.26987 121.502 7.75686C120.989 7.24384 120.394 6.81291 119.737 6.44354C118.424 5.72533 116.967 5.35596 115.366 5.35596C114.628 5.35596 113.889 5.43804 113.212 5.6022C112.904 5.68429 112.596 5.76637 112.329 5.84845C112.063 5.95105 111.775 6.05365 111.508 6.17678C111.344 6.25886 111.16 6.34094 110.995 6.44354C110.257 6.85395 109.6 7.34645 109.046 7.94154C108.697 8.31091 108.369 8.72132 108.102 9.17277L107.979 9.37798C107.958 9.3985 107.938 9.43954 107.917 9.46006C107.179 10.7529 106.809 12.2098 106.809 13.7899C106.809 15.5341 107.24 17.0732 108.102 18.407L108.143 18.4686H108.246C109.21 18.3865 110.031 18.0787 110.708 17.5451L110.811 17.4631L110.729 17.3605C109.969 16.3755 109.6 15.1648 109.6 13.7899C109.6 12.3945 109.969 11.2043 110.729 10.2193L110.749 10.1988C110.913 9.99359 111.057 9.80891 111.221 9.64475C111.344 9.52162 111.488 9.3985 111.632 9.27538C112.288 8.74184 113.068 8.35195 113.93 8.16727L114.012 8.14675C114.504 8.04415 115.059 8.0031 115.613 8.02362C117.193 8.06467 118.629 8.72132 119.655 9.84995C120.681 10.9581 121.194 12.4355 121.092 13.9951C120.948 16.4576 119.306 17.935 117.562 19.5151C117.48 19.5972 117.398 19.6793 117.295 19.7614C117.213 19.8434 117.131 19.905 117.049 19.9871C116.844 20.1718 116.639 20.377 116.413 20.5617L116.351 20.6232C115.838 21.0952 115.325 21.5672 114.792 22.0391L111.591 24.8915L109.58 23.1062H109.518C108.471 23.2704 107.404 23.2909 106.358 23.1267C106.296 23.1267 106.235 23.1062 106.173 23.1062L105.537 23.0036L106.214 23.6192C107.486 24.7684 108.759 25.9175 110.01 27.0667L110.995 27.949C111.324 28.2569 111.878 28.2569 112.206 27.949L115.1 25.3019C116.351 24.1322 117.747 22.8805 119.06 21.6082Z" fill="#E85F5C"/>
<path d="M100.551 9.62433C99.8323 10.8761 99.463 12.3125 99.463 13.8721C99.463 14.8571 99.6066 15.7805 99.8939 16.6423C100.284 17.812 100.94 18.8791 101.864 19.782C102.213 20.1308 102.623 20.4592 103.054 20.7465C104.08 21.4236 105.229 21.8751 106.501 22.0392C106.953 22.1008 107.404 22.1418 107.876 22.1418C109.436 22.1418 110.893 21.7725 112.165 21.0748C112.206 21.0543 112.247 21.0337 112.288 20.9927L112.411 20.9106C113.314 20.3771 114.074 19.6794 114.669 18.8586C114.853 18.6123 115.018 18.3456 115.182 18.0788C115.264 17.9557 115.325 17.812 115.387 17.6889C115.982 16.5192 116.269 15.2264 116.269 13.831C116.269 12.292 115.9 10.8556 115.182 9.60381C115.1 9.46017 114.997 9.31652 114.894 9.15236L114.853 9.0908H114.792C114.71 9.0908 114.607 9.11132 114.525 9.11132C113.643 9.1934 112.924 9.48069 112.268 9.97318L112.165 10.0553L112.247 10.1579C113.068 11.1428 113.499 12.3741 113.52 13.79C113.52 15.1649 113.13 16.3551 112.391 17.34C112.227 17.5452 112.063 17.7299 111.898 17.9146C111.755 18.0583 111.632 18.1814 111.488 18.284C110.954 18.7354 110.318 19.0638 109.641 19.269C109.477 19.3305 109.313 19.3716 109.149 19.3921C108.697 19.4742 108.246 19.5357 107.774 19.5357C107.733 19.5357 107.671 19.5357 107.61 19.5357H107.548C106.522 19.5152 105.599 19.269 104.798 18.797C104.388 18.5713 103.998 18.284 103.67 17.9351L103.629 17.8941C102.541 16.8065 102.007 15.4111 102.007 13.749C102.007 12.0868 102.562 10.6914 103.629 9.60381C104.655 8.57778 105.968 8.02373 107.528 7.98269H107.589L107.63 7.94165C108.205 7.18239 108.902 6.52573 109.703 5.97168L109.949 5.80751L109.662 5.74595C109.067 5.64335 108.471 5.58179 107.897 5.58179C106.337 5.58179 104.88 5.95116 103.608 6.64885C102.295 7.38759 101.289 8.37258 100.551 9.62433Z" fill="#E85F5C"/>
<path d="M201.84 4.14527C201.717 4.10422 201.614 4.06318 201.532 4.02214L201.676 3.69381C201.737 3.73486 201.84 3.7759 201.922 3.81694C202.025 3.83746 202.107 3.85798 202.209 3.85798C202.373 3.85798 202.476 3.81694 202.476 3.73486C202.476 3.69381 202.455 3.65277 202.394 3.63225C202.353 3.61173 202.271 3.59121 202.148 3.57069C202.025 3.55017 201.922 3.50913 201.84 3.48861C201.758 3.46809 201.696 3.40653 201.635 3.34497C201.573 3.2834 201.553 3.1808 201.553 3.0782C201.553 2.9756 201.573 2.89351 201.635 2.81143C201.696 2.72935 201.758 2.66779 201.881 2.62675C201.983 2.58571 202.127 2.56519 202.271 2.56519C202.373 2.56519 202.476 2.58571 202.579 2.60623C202.681 2.62675 202.763 2.66779 202.845 2.70883L202.702 3.03716C202.558 2.95508 202.394 2.91403 202.25 2.91403C202.168 2.91403 202.086 2.93455 202.045 2.95508C202.004 2.9756 201.983 3.01664 201.983 3.05768C201.983 3.09872 202.004 3.13976 202.066 3.16028C202.107 3.1808 202.189 3.20132 202.291 3.22184C202.414 3.24236 202.517 3.2834 202.599 3.30392C202.681 3.32444 202.743 3.38601 202.804 3.44757C202.866 3.50913 202.886 3.59121 202.886 3.71433C202.886 3.81694 202.866 3.89902 202.804 3.9811C202.743 4.06318 202.661 4.12474 202.558 4.16579C202.455 4.20683 202.312 4.22735 202.168 4.22735C202.086 4.18631 201.963 4.18631 201.84 4.14527Z" fill="#E85F5C"/>
<path d="M204.59 4.16579V3.32445L204.179 4.02214H203.974L203.564 3.34497V4.16579H203.153V2.56519H203.523L204.077 3.48861L204.631 2.56519H205V4.16579H204.59Z" fill="#E85F5C"/>
</svg>
