<svg width="184" height="71" viewBox="0 0 184 71" fill="none" xmlns="http://www.w3.org/2000/svg">
<path d="M44.6087 29.7921C46.5154 28.0443 47.4886 25.8596 47.4886 23.3173C47.4886 21.5099 47.0517 19.8813 46.1579 18.4513C45.4032 17.2 44.3903 16.2466 43.139 15.5713C44.1122 14.8762 44.9067 13.9427 45.5224 12.7908C46.2572 11.4402 46.6147 9.99029 46.6147 8.48082C46.6147 6.07759 45.721 4.03187 43.9732 2.42309C42.2651 0.814318 40.0207 0 37.3593 0H24.4891V32.4138H37.5381C40.3385 32.4138 42.702 31.5201 44.6087 29.7921ZM29.1764 4.64757H37.2799C38.5907 4.64757 39.6632 5.06466 40.557 5.9187C41.4508 6.77274 41.8679 7.78567 41.8679 9.01708C41.8679 10.2485 41.4508 11.2614 40.557 12.1155C39.6831 12.9695 38.6106 13.3866 37.2997 13.3866H29.1764V4.64757ZM29.1764 27.7265V18.0143H37.4983C38.988 18.0143 40.1995 18.4711 41.1727 19.4046C42.1459 20.3381 42.6425 21.4702 42.6425 22.8605C42.6425 24.2706 42.1658 25.4028 41.1926 26.3362C40.2194 27.2697 39.0078 27.7265 37.4983 27.7265H29.1764Z" fill="#E85F5C"/>
<path d="M56.3865 31.242C58.333 32.3741 60.5376 32.9501 62.921 32.9501C65.642 32.9501 68.0651 32.2152 70.1704 30.7852C72.2558 29.3552 73.8646 27.3293 74.9371 24.7473L75.1556 24.2309H70.3094L70.1902 24.4295C69.4554 25.6808 68.4623 26.6937 67.211 27.3889C65.9597 28.1039 64.5297 28.4614 62.921 28.4614C60.7362 28.4614 58.8692 27.806 57.3796 26.4951C55.9893 25.2836 55.1154 23.6748 54.7778 21.7085H75.4932L75.5329 21.3709C75.5727 20.8942 75.5925 20.4175 75.5925 19.9607C75.5925 17.5376 75.0761 15.3131 74.0433 13.3071C73.0105 11.3011 71.5011 9.69236 69.5547 8.52053C67.6281 7.34871 65.3838 6.75287 62.921 6.75287C60.5376 6.75287 58.3528 7.32885 56.3865 8.46095C54.4203 9.59305 52.8711 11.182 51.7588 13.188C50.6466 15.194 50.0905 17.4383 50.0905 19.8614C50.0905 22.3242 50.6466 24.5686 51.7588 26.5547C52.8711 28.521 54.4203 30.09 56.3865 31.242ZM57.5584 12.9298C59.0083 11.7182 60.8156 11.1025 62.921 11.1025C65.0064 11.1025 66.7939 11.6984 68.2438 12.9099C69.5745 14.0221 70.4882 15.5118 70.9251 17.3787H54.8969C55.314 15.5515 56.2078 14.042 57.5584 12.9298Z" fill="#E85F5C"/>
<path d="M104.272 23.3769V11.46H111.939V7.24942H104.272V2.08545H103.14L95.3745 10.2684V11.4799H99.6844V23.5159C99.6844 26.2568 100.479 28.4415 102.068 30.0305C102.862 30.8448 103.816 31.4406 104.928 31.8378V26.1376C104.491 25.4028 104.272 24.4891 104.272 23.3769Z" fill="#E85F5C"/>
<path d="M80.6572 23.4961C80.6572 26.2369 81.4517 28.4217 83.0207 30.0106C84.5898 31.5995 86.1588 32.394 88.8798 32.394L93.2096 28.1039H89.9921C88.4429 28.1039 87.2512 27.6868 86.4369 26.8924C85.6226 26.0979 85.2253 24.9062 85.2253 23.3769V11.46H92.8918V7.24942H85.2253V2.08545H84.0932L76.3274 10.2684V11.4799H80.6373V23.4961H80.6572Z" fill="#E85F5C"/>
<path d="M119.447 31.242C121.393 32.3741 123.598 32.9501 125.981 32.9501C128.702 32.9501 131.125 32.2152 133.23 30.7852C135.316 29.3552 136.925 27.3293 137.997 24.7473L138.216 24.2309H133.369L133.25 24.4295C132.535 25.6808 131.522 26.6937 130.271 27.3889C129.02 28.1039 127.59 28.4614 125.981 28.4614C123.796 28.4614 121.929 27.806 120.44 26.4951C119.049 25.2836 118.175 23.6748 117.838 21.7085H138.553L138.593 21.3709C138.633 20.8942 138.653 20.4175 138.653 19.9607C138.653 17.5376 138.136 15.3131 137.103 13.3071C136.071 11.3011 134.561 9.69236 132.635 8.52053C130.708 7.34871 128.464 6.75287 126.001 6.75287C123.617 6.75287 121.413 7.32885 119.466 8.46095C117.52 9.59305 115.951 11.182 114.839 13.188C113.726 15.194 113.17 17.4383 113.17 19.8614C113.17 22.3242 113.726 24.5686 114.839 26.5547C115.931 28.521 117.5 30.09 119.447 31.242ZM120.618 12.9298C122.068 11.7182 123.876 11.1025 125.981 11.1025C128.066 11.1025 129.854 11.6984 131.284 12.9099C132.615 14.0221 133.528 15.5118 133.965 17.3787H117.937C118.374 15.5515 119.268 14.042 120.618 12.9298Z" fill="#E85F5C"/>
<path d="M146.458 18.769C146.458 16.485 147.034 14.6974 148.186 13.4065C149.338 12.1353 150.967 11.4998 153.052 11.4998H155.932V7.11038H153.39C150.172 7.11038 147.61 8.22262 145.803 10.4074L145.286 7.24941H141.85V32.4138H146.458V18.769Z" fill="#E85F5C"/>
<path d="M21.927 27.9847H0V32.4734H9.63279V60.3986H14.3598V32.4734H21.927V27.9847Z" fill="#E85F5C"/>
<path d="M80.6175 36.4655C78.6909 35.2937 76.4466 34.6979 73.9838 34.6979C71.6004 34.6979 69.3958 35.2739 67.4494 36.406C65.5029 37.5381 63.9339 39.127 62.8216 41.133C61.7094 43.139 61.1533 45.3833 61.1533 47.8064C61.1533 50.2692 61.7094 52.5136 62.8216 54.4997C63.9339 56.4858 65.4831 58.0748 67.4494 59.2069C69.3958 60.339 71.6004 60.9149 73.9838 60.9149C76.7048 60.9149 79.1279 60.1801 81.2332 58.75C83.3186 57.32 84.9274 55.2942 85.9999 52.7122L86.2184 52.1958H81.3722L81.2729 52.3944C80.538 53.6457 79.545 54.6586 78.2937 55.3537C77.0424 56.0688 75.6124 56.4263 74.0036 56.4263C71.8189 56.4263 69.9519 55.7708 68.4623 54.46C67.072 53.2484 66.1981 51.6397 65.8604 49.6734H86.5759L86.6156 49.3357C86.6553 48.8591 86.6752 48.3824 86.6752 47.9256C86.6752 45.5025 86.1588 43.278 85.126 41.272C84.0535 39.266 82.5639 37.6572 80.6175 36.4655ZM65.9399 45.3635C66.357 43.5362 67.2706 42.0466 68.6013 40.9145C70.0512 39.703 71.8586 39.0872 73.9639 39.0872C76.0493 39.0872 77.8369 39.6831 79.2669 40.8946C80.5976 42.0069 81.5112 43.4965 81.9482 45.3635H65.9399Z" fill="#E85F5C"/>
<path d="M97.1422 54.8771C96.3477 54.0826 95.9306 52.891 95.9306 51.3616V39.4448H103.597V35.2342H95.9306V30.0702H94.7985L87.0327 38.2531V39.4646H91.3426V51.5007C91.3426 54.2415 92.1371 56.4263 93.7061 58.0152C95.2752 59.6041 97.46 60.4184 100.181 60.4184H103.716V56.1085H100.697C99.1482 56.0886 97.9366 55.6716 97.1422 54.8771Z" fill="#E85F5C"/>
<path d="M120.062 34.6979C118.275 34.6979 116.626 35.0554 115.137 35.7505C113.965 36.3067 112.952 37.0217 112.078 37.9353V26.3164H107.47V37.3593V60.3986H112.078V46.714C112.078 44.5293 112.753 42.6623 114.104 41.1926C115.454 39.703 117.083 38.9681 119.069 38.9681C121.095 38.9681 122.585 39.5838 123.657 40.8351C124.73 42.0863 125.266 43.9334 125.266 46.3168V60.3986H129.854V45.4032C129.854 42.1658 128.96 39.5441 127.212 37.6175C125.465 35.6711 123.061 34.6979 120.062 34.6979Z" fill="#E85F5C"/>
<path d="M152.198 36.4655C150.271 35.2937 148.027 34.6979 145.564 34.6979C143.181 34.6979 140.976 35.2739 139.03 36.406C137.083 37.5381 135.514 39.127 134.402 41.133C133.29 43.139 132.734 45.3833 132.734 47.8064C132.734 50.2692 133.29 52.5136 134.402 54.4997C135.514 56.4858 137.064 58.0748 139.03 59.2069C140.976 60.339 143.181 60.9149 145.564 60.9149C148.285 60.9149 150.708 60.1801 152.814 58.75C154.899 57.32 156.508 55.2942 157.58 52.7122L157.799 52.1958H152.933L152.814 52.3944C152.079 53.6457 151.086 54.6586 149.835 55.3537C148.583 56.0688 147.153 56.4263 145.544 56.4263C143.36 56.4263 141.493 55.7708 140.003 54.46C138.613 53.2484 137.739 51.6397 137.401 49.6734H158.117L158.156 49.3357C158.196 48.8591 158.216 48.3824 158.216 47.9256C158.216 45.5025 157.7 43.278 156.667 41.272C155.634 39.266 154.125 37.6572 152.198 36.4655ZM137.52 45.3635C137.938 43.5362 138.851 42.0466 140.182 40.9145C141.632 39.703 143.439 39.0872 145.544 39.0872C147.63 39.0872 149.417 39.6831 150.867 40.8946C152.198 42.0069 153.112 43.4965 153.549 45.3635H137.52Z" fill="#E85F5C"/>
<path d="M165.545 38.3921L165.028 35.2342H161.592V60.3986H166.2V46.7538C166.2 44.4697 166.776 42.6822 167.928 41.3912C169.06 40.1201 170.709 39.4845 172.794 39.4845H175.674V35.0951H173.132C169.914 35.0951 167.372 36.2074 165.545 38.3921Z" fill="#E85F5C"/>
<path d="M54.3408 38.4716C53.5464 37.697 52.6327 37.0217 51.6198 36.4457C49.5939 35.3335 47.3298 34.7575 44.8471 34.7575C43.6951 34.7575 42.563 34.8766 41.5104 35.1348C41.0337 35.254 40.557 35.3732 40.1399 35.5321C39.7228 35.6711 39.2859 35.8499 38.8688 36.0485C38.6106 36.1676 38.3325 36.3067 38.0743 36.4457C36.9422 37.0813 35.9293 37.8559 35.0554 38.7695C34.5191 39.3455 34.0226 39.981 33.5857 40.6563L33.387 40.9741C33.3473 41.0138 33.3275 41.0535 33.3076 41.1131C32.1556 43.0993 31.5796 45.3635 31.5796 47.8064C31.5796 50.4877 32.2549 52.8909 33.5658 54.9367L33.6452 55.0558L33.824 55.036C35.3136 54.9168 36.5649 54.4401 37.6374 53.606L37.7764 53.4868L37.6572 53.3478C36.5053 51.8184 35.9094 49.9713 35.9094 47.8064C35.9094 45.6614 36.5053 43.7944 37.6572 42.2651L37.6771 42.2254C37.9353 41.9076 38.1736 41.6295 38.412 41.3912C38.6106 41.1926 38.8291 40.994 39.0475 40.8152C40.0605 39.981 41.2522 39.405 42.5829 39.1071L42.702 39.0873C43.4766 38.9284 44.3307 38.8688 45.1649 38.8887C47.6078 38.9681 49.8124 39.9612 51.4212 41.709C52.9902 43.4369 53.7847 45.7011 53.6457 48.1043C53.4073 51.9177 50.8651 54.2018 48.1838 56.6249C48.0448 56.7441 47.9057 56.8632 47.7866 56.9824C47.6475 57.1016 47.5284 57.2207 47.3893 57.3399C47.0716 57.6378 46.7538 57.9357 46.4161 58.2337L46.3168 58.3131C45.5224 59.0281 44.7279 59.7829 43.8937 60.4979L38.9482 64.8872L35.9094 62.1662L35.83 62.1861C34.2014 62.4443 32.5529 62.4641 30.9441 62.2258C30.8448 62.2059 30.7455 62.1861 30.6462 62.1861L29.673 62.0073L30.7256 62.9607C32.6919 64.7482 34.6383 66.5159 36.6046 68.2835L38.1339 69.654C38.6503 70.1307 39.5044 70.1108 40.0207 69.6341L44.4896 65.5427C46.3963 63.8147 48.5413 61.8484 50.587 59.8822C50.9247 59.5644 51.2623 59.2466 51.6 58.9288C53.3279 57.3002 55.1154 55.6318 56.3667 53.5265C56.8632 52.6923 57.2605 51.8184 57.5187 50.9048C58.5117 47.6277 58.1145 44.0526 56.4064 41.1131C55.8304 40.1598 55.1551 39.2462 54.3408 38.4716Z" fill="#E85F5C"/>
<path d="M33.2679 60.7561C35.691 60.7561 37.9154 60.1999 39.9016 59.1076C39.9612 59.0678 40.0406 59.0281 40.1002 58.9884L40.2789 58.8692C41.6692 58.035 42.8411 56.9824 43.7746 55.7113C44.0725 55.314 44.3307 54.9367 44.569 54.5196C44.6882 54.321 44.7875 54.1223 44.8868 53.9237C45.8004 52.1362 46.2572 50.1302 46.2572 47.9653C46.2572 45.5621 45.6812 43.3773 44.569 41.411C44.4498 41.1926 44.291 40.9542 44.1321 40.696L44.0725 40.6166H43.9732C43.8341 40.6166 43.6951 40.6364 43.5561 40.6563C42.2055 40.7755 41.0734 41.2124 40.0803 41.987L39.9214 42.1062L40.0406 42.2452C41.3316 43.7746 41.987 45.6614 42.0069 47.866C42.0069 49.9912 41.411 51.8383 40.2591 53.3478C40.0207 53.6655 39.7625 53.9635 39.5044 54.2217C39.2859 54.4401 39.0873 54.6189 38.8688 54.7976C38.0346 55.4928 37.0614 56.0092 36.0087 56.327C35.7505 56.4064 35.4923 56.4859 35.2341 56.5256C34.539 56.6646 33.824 56.7441 33.109 56.7441C33.0295 56.7441 32.9501 56.7441 32.8508 56.7441H32.7713C31.1824 56.7043 29.7723 56.327 28.5409 55.612C27.9053 55.2544 27.3094 54.7976 26.793 54.2812L26.7335 54.2415C25.0651 52.5533 24.2111 50.4083 24.2111 47.8263C24.2111 45.2443 25.0452 43.0993 26.7136 41.411C28.3025 39.8221 30.3284 38.9681 32.7515 38.9085H32.8508L32.9104 38.8291C33.7843 37.6572 34.8766 36.6443 36.1081 35.7704L36.4854 35.5122L36.0485 35.4328C35.1348 35.254 34.2212 35.1746 33.3275 35.1746C30.9044 35.1746 28.6799 35.7307 26.6937 36.8231C24.7076 37.9154 23.1385 39.4646 22.0263 41.411C20.9141 43.3575 20.3381 45.5621 20.3381 47.9653C20.3381 49.4748 20.5566 50.9247 20.9935 52.2554C21.5894 54.0826 22.6222 55.7113 24.0522 57.1214C24.5884 57.6577 25.2041 58.1542 25.8993 58.611C27.4882 59.6637 29.2757 60.339 31.2221 60.617C31.8378 60.7163 32.533 60.7561 33.2679 60.7561Z" fill="#E85F5C"/>
<path d="M179.786 31.5598C179.666 31.5201 179.507 31.4803 179.309 31.4207C179.15 31.381 179.011 31.3413 178.951 31.3214C178.872 31.2817 178.832 31.242 178.832 31.1824C178.832 31.1228 178.872 31.0632 178.931 31.0235C178.991 30.9838 179.09 30.9639 179.229 30.9639C179.448 30.9639 179.686 31.0235 179.925 31.1625L180.143 30.6462C180.024 30.5667 179.885 30.527 179.726 30.4873C179.567 30.4475 179.408 30.4277 179.249 30.4277C179.011 30.4277 178.812 30.4674 178.653 30.527C178.495 30.6064 178.375 30.6859 178.276 30.8249C178.197 30.9441 178.157 31.0831 178.157 31.242C178.157 31.4207 178.197 31.5598 178.296 31.6591C178.395 31.7584 178.495 31.8378 178.614 31.8776C178.733 31.9173 178.892 31.957 179.09 32.0166C179.269 32.0563 179.388 32.096 179.468 32.1159C179.547 32.1556 179.587 32.1953 179.587 32.2748C179.587 32.4138 179.448 32.4734 179.19 32.4734C179.051 32.4734 178.912 32.4535 178.753 32.4138C178.614 32.3741 178.475 32.3145 178.375 32.2351L178.137 32.7515C178.256 32.8309 178.415 32.8905 178.594 32.9501C178.792 32.9898 178.971 33.0295 179.17 33.0295C179.408 33.0295 179.607 32.9898 179.766 32.9302C179.925 32.8508 180.064 32.7713 180.143 32.6323C180.222 32.5131 180.262 32.3741 180.262 32.2351C180.262 32.0563 180.222 31.9173 180.123 31.818C180.004 31.6789 179.905 31.5995 179.786 31.5598Z" fill="#E85F5C"/>
<path d="M183.44 30.4674H182.864L182.01 31.8974L181.136 30.4674H180.56V32.9501H181.216V31.6591L181.831 32.6919H182.149L182.785 31.6194L182.804 32.9501H183.44V30.4674Z" fill="#E85F5C"/>
</svg>
